g Body_01_(2)
v 0.1274 -0.0088 0.11975
v 0.1274 -0.0088 0.09155
v 0.1274 0.0036 0.09155
v 0.1274 0.0036 0.11975
v 0.1418 0.0036 0.11975
v 0.1418 0.0036 0.09155
v 0.0898 -0.0088 0.09155
v 0.0898 0.0288 0.09155
v 0.1042 0.0288 0.09155
v 0.1418 0.0412 0.09155
v 0.1042 0.0412 0.09155
v 0.0898 -0.0088 0.03045
v 0.0898 0.0288 0.03045
v 0.1042 0.0412 0.03045
v 0.1418 0.0412 0.03045
v 0.1042 0.0288 0.03045
v 0.1274 0.0036 0.03045
v 0.1274 -0.0088 0.03045
v 0.1418 0.0036 0.03045
v 0.1274 -0.0088 0.00225
v 0.1274 0.0036 0.00225
v 0.1418 0.0036 0.00225
v 0.1042 0.0288 0.00225
v 0.0522 0.0288 0.03045
v 0.0522 0.0288 0.09155
v 0.0376 0.0288 0.00225
v 0.0376 0.0288 0.03045
v 0.1042 0.0288 0.11975
v 0.0376 0.0288 0.11975
v 0.0376 0.0288 0.09155
v 0.0522 -0.0088 0.03045
v 0.0522 -0.0088 0.09155
v 0.0146 -0.0088 0.11975
v 0.0146 -0.0088 0.09155
v 0.0146 -0.0088 0.00225
v 0.0146 -0.0088 0.03045
v 0.0146 0.0042 0.11975
v 0.0146 0.0042 0.09155
v 0.0146 0.0042 0.03045
v 0.0146 0.0042 0.00225
v -7.28584e-17 0.0042 0.09155
v -7.28584e-17 0.0042 0.11975
v -7.28584e-17 0.0042 0.03045
v -7.28584e-17 0.0042 0.00225
v -7.28584e-17 0.0418 0.09155
v 0.0376 0.0418 0.09155
v -7.28584e-17 0.0418 0.03045
v 0.0376 0.0418 0.03045
v 0.1042 0.0788 0.09155
v 0.1042 0.0788 0.03045
v 0.1042 0.0918 0.11975
v 0.1042 0.0918 0.09155
v 0.1042 0.0918 0.00225
v 0.1042 0.0918 0.03045
v 0.1418 0.0788 0.09155
v 0.1418 0.0788 0.03045
v 0.1418 0.1164 0.00225
v 0.1418 0.1164 0.03045
v 0.1418 0.1164 0.11975
v 0.1418 0.1164 0.09155
v 0.1272 0.1164 0.09155
v 0.1272 0.1164 0.11975
v 0.1272 0.1164 0.00225
v 0.1272 0.1164 0.03045
v 0.1272 0.1294 0.11975
v 0.1272 0.1294 0.09155
v 0.1272 0.1294 0.03045
v 0.1272 0.1294 0.00225
v 0.0896 0.1294 0.09155
v 0.0896 0.0918 0.09155
v 0.0896 0.1294 0.03045
v 0.0896 0.0918 0.03045
v 0.0376 0.0918 0.11975
v 0.0144 0.117 0.11975
v 0.0144 0.1294 0.11975
v -7.28584e-17 0.117 0.11975
v 0.0144 0.1294 0.09155
v 0.0144 0.117 0.09155
v -7.28584e-17 0.117 0.09155
v 0.0376 0.0918 0.00225
v -7.28584e-17 0.117 0.00225
v 0.0144 0.117 0.00225
v 0.0144 0.1294 0.00225
v 0.0144 0.117 0.03045
v 0.0144 0.1294 0.03045
v -7.28584e-17 0.117 0.03045
v 0.052 0.1294 0.03045
v 0.052 0.1294 0.09155
v 0.052 0.0918 0.03045
v 0.052 0.0918 0.09155
v 0.0376 0.0918 0.09155
v 0.0376 0.0918 0.03045
v -7.28584e-17 0.0794 0.09155
v -7.28584e-17 0.0794 0.03045
v 0.0376 0.0794 0.09155
v 0.0376 0.0794 0.03045
vn 1 2.83256e-32 -4.62593e-16
vn -6.12323e-17 -1 3.46945e-16
vn -6.12323e-17 -6.93889e-16 -1
vn 1 0 0
vn -6.12323e-17 -1 0
vn 6.12323e-17 1.15648e-16 1
vn 1 0 0
vn -6.12323e-17 -1 3.46945e-16
vn 0 1 6.12323e-17
vn -1 0 0
vn -0 -1 -6.12323e-17
vn 6.12323e-17 6.93889e-16 -1
vn -6.12323e-17 -1.15648e-16 1
vn 6.12323e-17 -1 0
vn -1 6.12323e-17 6.12323e-17
vn 6.12323e-17 1 0
vn 1 -6.12323e-17 -6.12323e-17
vn 6.93889e-16 -6.12323e-17 -1
vn -1.15648e-16 6.12323e-17 1
vn 1 1.22465e-16 0
vn -1 -1.22465e-16 -4.62593e-16
vn -6.12323e-17 1 3.46945e-16
vn 6.12323e-17 3.7494e-33 -1
vn -1 -1.22465e-16 0
vn -6.12323e-17 1 3.46945e-16
vn 1.22465e-16 -1 6.12323e-17
vn -1 -1.22465e-16 0
vn 1 6.12323e-17 6.12323e-17
vn 6.12323e-17 6.93889e-16 -1
vn -6.12323e-17 -1.15648e-16 1
vn -6.12323e-17 1 0
vt -0.0141 -0.0376
vt 0.0141 -0.0376
vt 0.0141 -0.0252
vt -0.0141 -0.0252
vt 0.0141 -0.0376
vt 0.0141 -0.0232
vt -0.0141 -0.0232
vt -0.0141 -0.0376
vt 0.0688 0.0144
vt 0.0312 0.0144
vt 0.0312 -1.91045e-18
vt 0.0188 -0.0376
vt 0.0564 -0.0376
vt 0.0564 -0.0232
vt 0.0188 -1.15117e-18
vt 0.0688 -0.0232
vt -1.87065e-18 -0.03055
vt 0.0376 -0.03055
vt 0.0376 0.03055
vt 1.87065e-18 0.03055
vt 1.87065e-18 -0.03055
vt -1.87065e-18 0.03055
vt -0.0376 0.03055
vt -0.0376 -0.03055
vt -0.0188 -0.0376
vt -0.0312 -1.91045e-18
vt -0.0564 -0.0232
vt -0.0688 0.0144
vt -0.0188 -1.15117e-18
vt -0.0688 -0.0232
vt -0.0312 0.0144
vt -0.0564 -0.0376
vt 0.0376 0.0141
vt 0.0252 0.0141
vt 0.0252 -0.0141
vt 0.0376 -0.0141
vt 0.0141 -0.0376
vt 0.0141 -0.0232
vt -0.0141 -0.0232
vt -0.0141 -0.0376
vt 0.0943 0.1175
vt 0.0423 0.0893
vt 0.0799 0.0893
vt 0.0799 0.0282
vt 0.0423 0.0282
vt 0.0277 0.1175
vt 0.0277 0.0893
vt 0.0943 7.77156e-16
vt 0.0943 0.0282
vt 0.0277 7.21645e-16
vt 0.0943 0.0893
vt 0.0277 0.0282
vt 1.87065e-18 -0.03055
vt -1.87065e-18 0.03055
vt -0.0376 0.03055
vt -0.0376 -0.03055
vt 0.0799 0.0893
vt 0.0799 0.0282
vt 0.0423 0.0282
vt 0.0047 6.66134e-16
vt 0.0047 0.0282
vt 0.1175 0.1175
vt 0.1175 0.0893
vt 0.0047 0.1175
vt 0.0423 0.0893
vt 0.1175 7.77156e-16
vt 0.0047 0.0893
vt 0.1175 0.0282
vt -0.0141 -0.0376
vt 0.0141 -0.0376
vt 0.0141 -0.0246
vt -0.0141 -0.0246
vt -0.0141 -0.0376
vt 0.0141 -0.0376
vt 0.0141 -0.0246
vt -0.0141 -0.0246
vt 0.0141 -0.0376
vt 0.0141 -0.023
vt -0.0141 -0.023
vt -0.0141 -0.0376
vt 0.0376 -0.0141
vt 0.0376 0.0141
vt 0.023 0.0141
vt 0.023 -0.0141
vt -0.0188 -0.0376
vt -0.0318 -1.94719e-18
vt -0.0564 -0.023
vt -0.0694 0.0146
vt -0.0188 -1.15117e-18
vt -0.0694 -0.023
vt -0.0318 0.0146
vt -0.0564 -0.0376
vt 0.0694 0.0146
vt 0.0318 0.0146
vt 0.0318 -1.94719e-18
vt 0.0188 -0.0376
vt 0.0564 -0.0376
vt 0.0564 -0.023
vt 0.0188 -1.15117e-18
vt 0.0694 -0.023
vt -1.87065e-18 -0.03055
vt 0.0376 -0.03055
vt 0.0376 0.03055
vt 1.87065e-18 0.03055
vt 0.0299 7.21645e-16
vt 0.0799 0.0282
vt 0.0423 0.0282
vt 0.0423 0.0893
vt 0.0799 0.0893
vt 0.0299 0.1175
vt 0.0299 0.0893
vt 0.0929 6.66134e-16
vt 0.0929 0.0282
vt 0.0929 0.1175
vt 0.0299 0.0282
vt 0.0929 0.0893
vt -1.87065e-18 -0.03055
vt 0.0376 -0.03055
vt 0.0376 0.03055
vt 1.87065e-18 0.03055
vt 0.0799 0.0893
vt 0.0799 0.0282
vt 0.0423 0.0282
vt 0.0047 6.66134e-16
vt 0.0047 0.0282
vt 0.1175 0.1175
vt 0.1175 0.0893
vt 0.0047 0.1175
vt 0.0423 0.0893
vt 0.1175 7.77156e-16
vt 0.0047 0.0893
vt 0.1175 0.0282
vt -0.0141 -0.0376
vt 0.0141 -0.0376
vt 0.0141 -0.023
vt -0.0141 -0.023
vt 0.023 0.0141
vt 0.023 -0.0141
vt 0.0376 -0.0141
vt 0.0376 0.0141
vt 0.0141 -0.0376
vt 0.0141 -0.0246
vt -0.0141 -0.0246
vt -0.0141 -0.0376
vt 0.0141 -0.0376
vt 0.0141 -0.0246
vt -0.0141 -0.0246
vt -0.0141 -0.0376
vt 0.071 0.013
vt 0.0334 4.09032e-18
vt 0.0564 -0.0246
vt 0.0188 -0.0376
vt 0.0334 0.013
vt 0.0564 -0.0376
vt 0.0188 2.30234e-18
vt 0.071 -0.0246
vt -0.0188 -0.0376
vt -0.0188 2.30234e-18
vt -0.0334 4.09032e-18
vt -0.071 0.013
vt -0.071 -0.0246
vt -0.0564 -0.0246
vt -0.0334 0.013
vt -0.0564 -0.0376
vt 1.87065e-18 -0.03055
vt -1.87065e-18 0.03055
vt -0.0376 0.03055
vt -0.0376 -0.03055
vt 0.057 0.0898
vt 0.0318 0.0666
vt 0.0318 -1.94719e-18
vt 0.0564 -0.023
vt -0.0558 0.1042
vt -0.0558 0.0896
vt -0.0312 0.0666
vt 0.0564 -0.0376
vt -0.0312 1.91045e-18
vt -0.0564 -0.0232
vt -0.0688 0.0896
vt 0.0694 -0.023
vt 0.0694 0.0898
vt -0.0688 -0.0232
vt 0.057 0.1042
vt -0.0564 -0.0376
vt -0.0141 -0.0376
vt 0.0141 -0.0376
vt 0.0141 -0.0252
vt -0.0141 -0.0252
vt 0.0141 -0.0376
vt 0.0141 -0.0232
vt -0.0141 -0.0232
vt -0.0141 -0.0376
vt -0.0376 0.0564
vt 1.91045e-18 -0.0312
vt -1.94719e-18 0.0318
vt -0.0376 -0.0564
vt -0.0232 -0.0564
vt 0.0898 0.0694
vt -0.023 0.0564
vt 0.1042 -0.0558
vt 0.0898 0.057
vt 0.0666 0.0318
vt 0.0896 -0.0558
vt 0.0666 -0.0312
vt -0.023 0.0694
vt 0.1042 0.057
vt 0.0896 -0.0688
vt -0.0232 -0.0688
vt 0.0376 0.0141
vt 0.0252 0.0141
vt 0.0252 -0.0141
vt 0.0376 -0.0141
vt 0.0141 -0.0376
vt 0.0141 -0.0232
vt -0.0141 -0.0232
vt -0.0141 -0.0376
vt 0.0799 0.0893
vt 0.0799 0.0282
vt 0.0423 0.0282
vt 0.0047 6.66134e-16
vt 0.0047 0.0282
vt 0.1175 0.1175
vt 0.1175 0.0893
vt 0.0047 0.1175
vt 0.0423 0.0893
vt 0.1175 7.77156e-16
vt 0.0047 0.0893
vt 0.1175 0.0282
vt 0.0943 0.1175
vt 0.0423 0.0893
vt 0.0799 0.0893
vt 0.0799 0.0282
vt 0.0423 0.0282
vt 0.0277 0.1175
vt 0.0277 0.0893
vt 0.0943 7.77156e-16
vt 0.0943 0.0282
vt 0.0277 7.21645e-16
vt 0.0943 0.0893
vt 0.0277 0.0282
vt -1.87065e-18 -0.03055
vt 0.0376 -0.03055
vt 0.0376 0.03055
vt 1.87065e-18 0.03055
vt 0.0799 0.0893
vt 0.0799 0.0282
vt 0.0423 0.0282
vt 0.0047 6.66134e-16
vt 0.0047 0.0282
vt 0.1175 0.1175
vt 0.1175 0.0893
vt 0.0047 0.1175
vt 0.0423 0.0893
vt 0.1175 7.77156e-16
vt 0.0047 0.0893
vt 0.1175 0.0282
vt 0.0299 7.21645e-16
vt 0.0799 0.0282
vt 0.0423 0.0282
vt 0.0423 0.0893
vt 0.0799 0.0893
vt 0.0299 0.1175
vt 0.0299 0.0893
vt 0.0929 6.66134e-16
vt 0.0929 0.0282
vt 0.0929 0.1175
vt 0.0299 0.0282
vt 0.0929 0.0893
vt 0.0688 0.0144
vt 0.0312 0.0144
vt 0.0312 1.91045e-18
vt 0.0188 -0.0376
vt 0.0564 -0.0376
vt 0.0564 -0.0232
vt 0.0188 1.15117e-18
vt 0.0688 -0.0232
vt -0.0188 -0.0376
vt -0.0312 1.91045e-18
vt -0.0564 -0.0232
vt -0.0688 0.0144
vt -0.0188 1.15117e-18
vt -0.0688 -0.0232
vt -0.0312 0.0144
vt -0.0564 -0.0376
vt 1.87065e-18 -0.03055
vt -1.87065e-18 0.03055
vt -0.0376 0.03055
vt -0.0376 -0.03055
f 1/1/1 2/2/1 3/3/1
f 3/3/1 4/4/1 1/1/1
f 5/5/2 4/6/2 3/7/2
f 3/7/2 6/8/2 5/5/2
f 7/9/3 8/10/3 9/11/3
f 10/12/3 6/13/3 3/14/3
f 9/11/3 3/14/3 7/9/3
f 3/14/3 9/11/3 10/12/3
f 9/11/3 11/15/3 10/12/3
f 3/14/3 2/16/3 7/9/3
f 8/17/4 7/18/4 12/19/4
f 12/19/4 13/20/4 8/17/4
f 11/21/5 14/22/5 15/23/5
f 15/23/5 10/24/5 11/21/5
f 15/25/6 16/26/6 17/27/6
f 12/28/6 17/27/6 16/26/6
f 15/25/6 14/29/6 16/26/6
f 12/28/6 18/30/6 17/27/6
f 16/26/6 13/31/6 12/28/6
f 17/27/6 19/32/6 15/25/6
f 20/33/7 21/34/7 17/35/7
f 17/35/7 18/36/7 20/33/7
f 19/37/8 17/38/8 21/39/8
f 21/39/8 22/40/8 19/37/8
f 23/41/9 24/42/9 13/43/9
f 8/44/9 13/43/9 24/42/9
f 24/42/9 25/45/9 8/44/9
f 26/46/9 27/47/9 24/42/9
f 24/42/9 23/41/9 26/46/9
f 28/48/9 9/49/9 8/44/9
f 29/50/9 28/48/9 25/45/9
f 8/44/9 25/45/9 28/48/9
f 13/43/9 16/51/9 23/41/9
f 25/45/9 30/52/9 29/50/9
f 25/53/10 24/54/10 31/55/10
f 31/55/10 32/56/10 25/53/10
f 12/57/11 7/58/11 32/59/11
f 33/60/11 34/61/11 32/59/11
f 32/59/11 7/58/11 33/60/11
f 20/62/11 18/63/11 12/57/11
f 35/64/11 20/62/11 31/65/11
f 12/57/11 31/65/11 20/62/11
f 1/66/11 33/60/11 7/58/11
f 32/59/11 31/65/11 12/57/11
f 31/65/11 36/67/11 35/64/11
f 7/58/11 2/68/11 1/66/11
f 34/69/10 33/70/10 37/71/10
f 37/71/10 38/72/10 34/69/10
f 35/73/10 36/74/10 39/75/10
f 39/75/10 40/76/10 35/73/10
f 41/77/11 38/78/11 37/79/11
f 37/79/11 42/80/11 41/77/11
f 43/81/11 44/82/11 40/83/11
f 40/83/11 39/84/11 43/81/11
f 45/85/12 30/86/12 38/87/12
f 32/88/12 38/87/12 30/86/12
f 45/85/12 46/89/12 30/86/12
f 32/88/12 34/90/12 38/87/12
f 30/86/12 25/91/12 32/88/12
f 38/87/12 41/92/12 45/85/12
f 31/93/13 24/94/13 27/95/13
f 47/96/13 43/97/13 39/98/13
f 27/95/13 39/98/13 31/93/13
f 39/98/13 27/95/13 47/96/13
f 27/95/13 48/99/13 47/96/13
f 39/98/13 36/100/13 31/93/13
f 46/101/14 45/102/14 47/103/14
f 47/103/14 48/104/14 46/101/14
f 28/105/15 49/106/15 11/107/15
f 14/108/15 11/107/15 49/106/15
f 49/106/15 50/109/15 14/108/15
f 23/110/15 16/111/15 14/108/15
f 14/108/15 50/109/15 23/110/15
f 51/112/15 52/113/15 49/106/15
f 53/114/15 23/110/15 50/109/15
f 49/106/15 28/105/15 51/112/15
f 11/107/15 9/115/15 28/105/15
f 50/109/15 54/116/15 53/114/15
f 49/117/16 55/118/16 56/119/16
f 56/119/16 50/120/16 49/117/16
f 56/121/17 55/122/17 10/123/17
f 5/124/17 6/125/17 10/123/17
f 10/123/17 55/122/17 5/124/17
f 57/126/17 58/127/17 56/121/17
f 22/128/17 57/126/17 15/129/17
f 56/121/17 15/129/17 57/126/17
f 59/130/17 5/124/17 55/122/17
f 10/123/17 15/129/17 56/121/17
f 15/129/17 19/131/17 22/128/17
f 55/122/17 60/132/17 59/130/17
f 59/133/16 60/134/16 61/135/16
f 61/135/16 62/136/16 59/133/16
f 63/137/16 64/138/16 58/139/16
f 58/139/16 57/140/16 63/137/16
f 65/141/17 62/142/17 61/143/17
f 61/143/17 66/144/17 65/141/17
f 67/145/17 64/146/17 63/147/17
f 63/147/17 68/148/17 67/145/17
f 55/149/18 52/150/18 61/151/18
f 69/152/18 61/151/18 52/150/18
f 55/149/18 49/153/18 52/150/18
f 69/152/18 66/154/18 61/151/18
f 52/150/18 70/155/18 69/152/18
f 61/151/18 60/156/18 55/149/18
f 71/157/19 72/158/19 54/159/19
f 56/160/19 58/161/19 64/162/19
f 54/159/19 64/162/19 71/157/19
f 64/162/19 54/159/19 56/160/19
f 54/159/19 50/163/19 56/160/19
f 64/162/19 67/164/19 71/157/19
f 70/165/20 72/166/20 71/167/20
f 71/167/20 69/168/20 70/165/20
f 4/169/19 28/170/19 29/171/19
f 29/171/19 37/172/19 4/169/19
f 59/173/19 28/170/19 4/169/19
f 59/173/19 62/174/19 51/175/19
f 42/176/19 73/177/19 74/178/19
f 42/176/19 37/172/19 29/171/19
f 65/179/19 74/178/19 73/177/19
f 33/180/19 1/181/19 4/169/19
f 51/175/19 28/170/19 59/173/19
f 29/171/19 73/177/19 42/176/19
f 65/179/19 75/182/19 74/178/19
f 4/169/19 5/183/19 59/173/19
f 73/177/19 62/174/19 65/179/19
f 62/174/19 73/177/19 51/175/19
f 37/172/19 33/180/19 4/169/19
f 74/178/19 76/184/19 42/176/19
f 75/185/21 77/186/21 78/187/21
f 78/187/21 74/188/21 75/185/21
f 76/189/22 74/190/22 78/191/22
f 78/191/22 79/192/22 76/189/22
f 44/193/23 80/194/23 26/195/23
f 44/193/23 81/196/23 82/197/23
f 20/198/23 40/199/23 26/195/23
f 57/200/23 21/201/23 23/202/23
f 82/197/23 63/203/23 53/204/23
f 82/197/23 80/194/23 44/193/23
f 20/198/23 35/205/23 40/199/23
f 57/200/23 22/206/23 21/201/23
f 82/197/23 68/207/23 63/203/23
f 26/195/23 21/201/23 20/198/23
f 21/201/23 26/195/23 23/202/23
f 53/204/23 80/194/23 82/197/23
f 23/202/23 63/203/23 57/200/23
f 63/203/23 23/202/23 53/204/23
f 82/197/23 83/208/23 68/207/23
f 26/195/23 40/199/23 44/193/23
f 83/209/24 82/210/24 84/211/24
f 84/211/24 85/212/24 83/209/24
f 86/213/25 84/214/25 82/215/25
f 82/215/25 81/216/25 86/213/25
f 87/217/25 88/218/25 69/219/25
f 65/220/25 66/221/25 69/219/25
f 69/219/25 88/218/25 65/220/25
f 83/222/25 85/223/25 87/217/25
f 68/224/25 83/222/25 71/225/25
f 87/217/25 71/225/25 83/222/25
f 75/226/25 65/220/25 88/218/25
f 69/219/25 71/225/25 87/217/25
f 71/225/25 67/227/25 68/224/25
f 88/218/25 77/228/25 75/226/25
f 80/229/26 72/230/26 89/231/26
f 90/232/26 89/231/26 72/230/26
f 72/230/26 70/233/26 90/232/26
f 53/234/26 54/235/26 72/230/26
f 72/230/26 80/229/26 53/234/26
f 73/236/26 91/237/26 90/232/26
f 51/238/26 73/236/26 70/233/26
f 90/232/26 70/233/26 73/236/26
f 89/231/26 92/239/26 80/229/26
f 70/233/26 52/240/26 51/238/26
f 90/241/27 88/242/27 87/243/27
f 87/243/27 89/244/27 90/241/27
f 47/245/27 45/246/27 93/247/27
f 76/248/27 79/249/27 93/247/27
f 93/247/27 45/246/27 76/248/27
f 44/250/27 43/251/27 47/245/27
f 81/252/27 44/250/27 94/253/27
f 47/245/27 94/253/27 44/250/27
f 42/254/27 76/248/27 45/246/27
f 93/247/27 94/253/27 47/245/27
f 94/253/27 86/255/27 81/252/27
f 45/246/27 41/256/27 42/254/27
f 73/257/28 46/258/28 95/259/28
f 96/260/28 95/259/28 46/258/28
f 46/258/28 48/261/28 96/260/28
f 80/262/28 92/263/28 96/260/28
f 96/260/28 48/261/28 80/262/28
f 29/264/28 30/265/28 46/258/28
f 26/266/28 80/262/28 48/261/28
f 46/258/28 73/257/28 29/264/28
f 95/259/28 91/267/28 73/257/28
f 48/261/28 27/268/28 26/266/28
f 88/269/29 90/270/29 91/271/29
f 93/272/29 79/273/29 78/274/29
f 91/271/29 78/274/29 88/269/29
f 78/274/29 91/271/29 93/272/29
f 91/271/29 95/275/29 93/272/29
f 78/274/29 77/276/29 88/269/29
f 94/277/30 92/278/30 84/279/30
f 87/280/30 84/279/30 92/278/30
f 94/277/30 96/281/30 92/278/30
f 87/280/30 85/282/30 84/279/30
f 92/278/30 89/283/30 87/280/30
f 84/279/30 86/284/30 94/277/30
f 95/285/31 96/286/31 94/287/31
f 94/287/31 93/288/31 95/285/31
